<svg xmlns="http://www.w3.org/2000/svg" xmlns:xlink="http://www.w3.org/1999/xlink" width="1920" zoomAndPan="magnify" viewBox="0 0 1440 809.999993" height="1080" preserveAspectRatio="xMidYMid meet" version="1.0"><defs><g/><clipPath id="4373b3aafe"><path d="M 528.511719 352.984375 L 922.261719 352.984375 L 922.261719 457.234375 L 528.511719 457.234375 Z M 528.511719 352.984375 " clip-rule="nonzero"/></clipPath><clipPath id="a4d10bbfdd"><path d="M 822.820312 380 L 892.570312 380 L 892.570312 441 L 822.820312 441 Z M 822.820312 380 " clip-rule="nonzero"/></clipPath></defs><rect x="-144" width="1728" fill="#ffffff" y="-80.999999" height="971.999992" fill-opacity="1"/><g clip-path="url(#4373b3aafe)"><path fill="#0d0d0d" d="M 528.511719 352.984375 L 922.261719 352.984375 L 922.261719 457.234375 L 528.511719 457.234375 Z M 528.511719 352.984375 " fill-opacity="1" fill-rule="nonzero"/></g><path fill="#bf4417" d="M 863.871094 410.425781 C 863.871094 407.09375 861.085938 404.394531 857.648438 404.394531 C 854.214844 404.394531 851.429688 407.09375 851.429688 410.425781 C 851.429688 413.757812 854.214844 416.457031 857.648438 416.457031 C 861.085938 416.457031 863.871094 413.757812 863.871094 410.425781 Z M 863.871094 410.425781 " fill-opacity="1" fill-rule="nonzero"/><g clip-path="url(#a4d10bbfdd)"><path fill="#bf4417" d="M 877.851562 399.230469 C 879.164062 394.054688 880.816406 384.457031 874.996094 381.203125 C 869.203125 377.964844 861.664062 384.171875 857.683594 387.898438 C 853.714844 384.207031 845.960938 378.027344 840.148438 381.289062 C 834.355469 384.542969 836.140625 393.980469 837.484375 399.1875 C 832.082031 400.675781 822.820312 403.878906 822.820312 410.425781 C 822.820312 416.953125 832.074219 420.4375 837.441406 421.925781 C 836.09375 427.160156 834.398438 436.464844 840.199219 439.707031 C 846.035156 442.972656 853.761719 436.9375 857.777344 433.171875 C 861.785156 436.917969 869.25 442.992188 875.046875 439.738281 C 880.859375 436.476562 879.34375 427.007812 878.003906 421.769531 C 883.207031 420.28125 892.476562 416.871094 892.476562 410.425781 C 892.476562 403.941406 883.167969 400.710938 877.851562 399.230469 Z M 877.191406 418.996094 C 876.308594 416.289062 875.121094 413.410156 873.664062 410.441406 C 875.054688 407.539062 876.199219 404.695312 877.054688 402.007812 C 880.953125 403.105469 889.503906 405.609375 889.503906 410.425781 C 889.503906 415.289062 881.296875 417.816406 877.191406 418.996094 Z M 873.554688 437.242188 C 869.230469 439.667969 862.808594 433.863281 859.851562 431.101562 C 861.8125 429.019531 863.777344 426.601562 865.691406 423.914062 C 869.058594 423.625 872.238281 423.148438 875.125 422.503906 C 876.070312 426.207031 877.898438 434.804688 873.554688 437.242188 Z M 841.683594 437.207031 C 837.359375 434.792969 839.335938 426.488281 840.328125 422.632812 C 843.179688 423.246094 846.339844 423.683594 849.714844 423.949219 C 851.640625 426.578125 853.660156 428.996094 855.695312 431.113281 C 853.179688 433.46875 846.027344 439.636719 841.683594 437.207031 Z M 825.796875 410.425781 C 825.796875 405.542969 834.296875 403.058594 838.285156 401.964844 C 839.15625 404.714844 840.300781 407.589844 841.679688 410.496094 C 840.28125 413.445312 839.121094 416.363281 838.242188 419.144531 C 834.441406 418.089844 825.796875 415.308594 825.796875 410.425781 Z M 841.636719 383.789062 C 845.980469 381.351562 852.714844 387.285156 855.597656 389.957031 C 853.574219 392.0625 851.574219 394.460938 849.664062 397.074219 C 846.386719 397.371094 843.25 397.84375 840.367188 398.476562 C 839.289062 394.277344 837.300781 386.222656 841.636719 383.789062 Z M 867.820312 400.210938 C 870.039062 400.484375 872.171875 400.84375 874.167969 401.289062 C 873.570312 403.152344 872.820312 405.105469 871.941406 407.101562 C 870.664062 404.753906 869.292969 402.449219 867.820312 400.210938 Z M 857.683594 392.019531 C 859.054688 393.460938 860.429688 395.070312 861.78125 396.816406 C 859.039062 396.691406 856.292969 396.6875 853.550781 396.8125 C 854.902344 395.082031 856.289062 393.476562 857.683594 392.019531 Z M 843.386719 407.101562 C 842.519531 405.109375 841.777344 403.148438 841.171875 401.257812 C 843.160156 400.828125 845.28125 400.472656 847.488281 400.207031 C 846.011719 402.441406 844.640625 404.742188 843.386719 407.101562 Z M 847.550781 420.851562 C 845.269531 420.601562 843.117188 420.269531 841.132812 419.847656 C 841.746094 417.925781 842.503906 415.921875 843.390625 413.886719 C 844.660156 416.269531 846.050781 418.59375 847.550781 420.851562 Z M 857.765625 429.035156 C 856.355469 427.5625 854.949219 425.929688 853.574219 424.171875 C 856.332031 424.277344 859.097656 424.277344 861.855469 424.160156 C 860.5 425.945312 859.128906 427.582031 857.765625 429.035156 Z M 871.96875 413.785156 C 872.898438 415.839844 873.683594 417.832031 874.308594 419.722656 C 872.289062 420.171875 870.109375 420.53125 867.808594 420.796875 C 869.292969 418.515625 870.6875 416.179688 871.96875 413.785156 Z M 864.027344 421.148438 C 859.808594 421.441406 855.5625 421.4375 851.34375 421.171875 C 848.945312 417.773438 846.808594 414.203125 844.96875 410.496094 C 846.800781 406.792969 848.921875 403.226562 851.308594 399.835938 C 855.53125 399.527344 859.78125 399.527344 864.003906 399.839844 C 866.371094 403.230469 868.488281 406.785156 870.363281 410.453125 C 868.511719 414.152344 866.378906 417.726562 864.027344 421.148438 Z M 873.507812 383.703125 C 877.851562 386.128906 875.917969 394.753906 874.96875 398.507812 C 872.082031 397.859375 868.941406 397.378906 865.65625 397.078125 C 863.742188 394.4375 861.757812 392.035156 859.769531 389.953125 C 862.6875 387.226562 869.207031 381.296875 873.507812 383.703125 Z M 873.507812 383.703125 " fill-opacity="1" fill-rule="evenodd"/></g><g fill="#ffffff" fill-opacity="1"><g transform="translate(553.731652, 420.231503)"><g><path d="M 10.53125 -5.28125 C 10.53125 -3.34375 10.078125 -1.925781 9.171875 -1.03125 C 8.273438 -0.144531 6.878906 0.296875 4.984375 0.296875 C 4.390625 0.296875 3.835938 0.25 3.328125 0.15625 C 2.828125 0.0703125 2.25 -0.0546875 1.59375 -0.234375 C 1.382812 -0.273438 1.234375 -0.359375 1.140625 -0.484375 C 1.054688 -0.609375 1.023438 -0.796875 1.046875 -1.046875 L 1.3125 -3.3125 C 1.34375 -3.632812 1.503906 -3.769531 1.796875 -3.71875 C 1.910156 -3.675781 2.15625 -3.59375 2.53125 -3.46875 C 2.914062 -3.34375 3.359375 -3.28125 3.859375 -3.28125 C 4.691406 -3.28125 5.296875 -3.503906 5.671875 -3.953125 C 6.046875 -4.410156 6.234375 -5.203125 6.234375 -6.328125 L 6.234375 -21.03125 C 6.234375 -21.351562 6.378906 -21.515625 6.671875 -21.515625 L 10.125 -21.515625 C 10.394531 -21.515625 10.53125 -21.359375 10.53125 -21.046875 Z M 10.53125 -5.28125 "/></g></g></g><g fill="#ffffff" fill-opacity="1"><g transform="translate(566.401233, 420.231503)"><g><path d="M 8.671875 0.296875 C 7.179688 0.296875 5.851562 -0.0351562 4.6875 -0.703125 C 3.53125 -1.378906 2.632812 -2.316406 2 -3.515625 C 1.363281 -4.710938 1.046875 -6.070312 1.046875 -7.59375 C 1.046875 -9.164062 1.375 -10.5625 2.03125 -11.78125 C 2.6875 -13.007812 3.59375 -13.960938 4.75 -14.640625 C 5.914062 -15.316406 7.234375 -15.65625 8.703125 -15.65625 C 10.191406 -15.65625 11.515625 -15.3125 12.671875 -14.625 C 13.828125 -13.9375 14.722656 -12.984375 15.359375 -11.765625 C 16.003906 -10.554688 16.328125 -9.175781 16.328125 -7.625 C 16.328125 -6.101562 16.003906 -4.738281 15.359375 -3.53125 C 14.710938 -2.332031 13.804688 -1.394531 12.640625 -0.71875 C 11.484375 -0.0390625 10.160156 0.296875 8.671875 0.296875 Z M 8.703125 -2.296875 C 9.941406 -2.296875 10.882812 -2.757812 11.53125 -3.6875 C 12.175781 -4.613281 12.5 -5.945312 12.5 -7.6875 C 12.5 -9.445312 12.171875 -10.800781 11.515625 -11.75 C 10.859375 -12.695312 9.921875 -13.171875 8.703125 -13.171875 C 7.484375 -13.171875 6.539062 -12.695312 5.875 -11.75 C 5.207031 -10.800781 4.875 -9.445312 4.875 -7.6875 C 4.875 -5.945312 5.207031 -4.613281 5.875 -3.6875 C 6.539062 -2.757812 7.484375 -2.296875 8.703125 -2.296875 Z M 8.703125 -2.296875 "/></g></g></g><g fill="#ffffff" fill-opacity="1"><g transform="translate(583.76755, 420.231503)"><g><path d="M 10.4375 -1.59375 C 9.082031 -0.332031 7.5 0.296875 5.6875 0.296875 C 4.21875 0.296875 3.050781 -0.09375 2.1875 -0.875 C 1.332031 -1.664062 0.90625 -2.6875 0.90625 -3.9375 C 0.90625 -5.539062 1.617188 -6.816406 3.046875 -7.765625 C 4.472656 -8.710938 6.472656 -9.238281 9.046875 -9.34375 L 10.5 -9.421875 C 10.8125 -9.460938 10.96875 -9.609375 10.96875 -9.859375 L 10.96875 -10.53125 C 10.96875 -11.375 10.707031 -12.03125 10.1875 -12.5 C 9.675781 -12.976562 8.976562 -13.21875 8.09375 -13.21875 C 6.625 -13.21875 5.492188 -12.582031 4.703125 -11.3125 C 4.640625 -11.226562 4.582031 -11.160156 4.53125 -11.109375 C 4.488281 -11.066406 4.425781 -11.046875 4.34375 -11.046875 C 4.25 -11.046875 4.175781 -11.054688 4.125 -11.078125 L 1.6875 -11.6875 C 1.53125 -11.726562 1.453125 -11.816406 1.453125 -11.953125 C 1.453125 -12.046875 1.488281 -12.171875 1.5625 -12.328125 C 2.0625 -13.410156 2.882812 -14.234375 4.03125 -14.796875 C 5.1875 -15.367188 6.597656 -15.65625 8.265625 -15.65625 C 10.429688 -15.65625 12.019531 -15.226562 13.03125 -14.375 C 14.050781 -13.53125 14.5625 -12.332031 14.5625 -10.78125 L 14.5625 -0.578125 C 14.5625 -0.367188 14.523438 -0.21875 14.453125 -0.125 C 14.390625 -0.0390625 14.257812 0 14.0625 0 L 11.59375 0 C 11.425781 0 11.300781 -0.0546875 11.21875 -0.171875 C 11.144531 -0.285156 11.085938 -0.460938 11.046875 -0.703125 L 11.015625 -1.5625 C 10.992188 -1.738281 10.925781 -1.828125 10.8125 -1.828125 C 10.757812 -1.828125 10.632812 -1.75 10.4375 -1.59375 Z M 10.96875 -7.015625 C 10.96875 -7.191406 10.929688 -7.316406 10.859375 -7.390625 C 10.796875 -7.472656 10.6875 -7.515625 10.53125 -7.515625 L 9.34375 -7.421875 C 7.988281 -7.328125 6.859375 -7.019531 5.953125 -6.5 C 5.054688 -5.988281 4.609375 -5.289062 4.609375 -4.40625 C 4.609375 -3.75 4.84375 -3.226562 5.3125 -2.84375 C 5.789062 -2.457031 6.425781 -2.265625 7.21875 -2.265625 C 8.226562 -2.265625 9.109375 -2.570312 9.859375 -3.1875 C 10.597656 -3.769531 10.96875 -4.359375 10.96875 -4.953125 Z M 12.796875 -19.203125 C 12.054688 -18.710938 11.222656 -18.46875 10.296875 -18.46875 C 9.679688 -18.46875 8.957031 -18.613281 8.125 -18.90625 C 8.050781 -18.925781 7.8125 -18.992188 7.40625 -19.109375 C 7.007812 -19.222656 6.609375 -19.28125 6.203125 -19.28125 C 5.816406 -19.28125 5.492188 -19.226562 5.234375 -19.125 C 4.972656 -19.019531 4.679688 -18.851562 4.359375 -18.625 C 4.203125 -18.539062 4.113281 -18.5 4.09375 -18.5 C 3.976562 -18.5 3.890625 -18.597656 3.828125 -18.796875 L 3.453125 -19.890625 C 3.429688 -19.953125 3.421875 -20.03125 3.421875 -20.125 C 3.421875 -20.238281 3.488281 -20.363281 3.625 -20.5 C 4.007812 -20.832031 4.382812 -21.078125 4.75 -21.234375 C 5.125 -21.398438 5.570312 -21.484375 6.09375 -21.484375 C 6.675781 -21.484375 7.429688 -21.332031 8.359375 -21.03125 C 8.679688 -20.925781 9.007812 -20.832031 9.34375 -20.75 C 9.6875 -20.664062 10.003906 -20.625 10.296875 -20.625 C 10.921875 -20.625 11.550781 -20.84375 12.1875 -21.28125 C 12.300781 -21.363281 12.382812 -21.40625 12.4375 -21.40625 C 12.570312 -21.40625 12.671875 -21.296875 12.734375 -21.078125 L 13.078125 -19.8125 L 13.109375 -19.65625 C 13.109375 -19.488281 13.003906 -19.335938 12.796875 -19.203125 Z M 12.796875 -19.203125 "/></g></g></g><g fill="#ffffff" fill-opacity="1"><g transform="translate(599.94518, 420.231503)"><g><path d="M 8.671875 0.296875 C 7.179688 0.296875 5.851562 -0.0351562 4.6875 -0.703125 C 3.53125 -1.378906 2.632812 -2.316406 2 -3.515625 C 1.363281 -4.710938 1.046875 -6.070312 1.046875 -7.59375 C 1.046875 -9.164062 1.375 -10.5625 2.03125 -11.78125 C 2.6875 -13.007812 3.59375 -13.960938 4.75 -14.640625 C 5.914062 -15.316406 7.234375 -15.65625 8.703125 -15.65625 C 10.191406 -15.65625 11.515625 -15.3125 12.671875 -14.625 C 13.828125 -13.9375 14.722656 -12.984375 15.359375 -11.765625 C 16.003906 -10.554688 16.328125 -9.175781 16.328125 -7.625 C 16.328125 -6.101562 16.003906 -4.738281 15.359375 -3.53125 C 14.710938 -2.332031 13.804688 -1.394531 12.640625 -0.71875 C 11.484375 -0.0390625 10.160156 0.296875 8.671875 0.296875 Z M 8.703125 -2.296875 C 9.941406 -2.296875 10.882812 -2.757812 11.53125 -3.6875 C 12.175781 -4.613281 12.5 -5.945312 12.5 -7.6875 C 12.5 -9.445312 12.171875 -10.800781 11.515625 -11.75 C 10.859375 -12.695312 9.921875 -13.171875 8.703125 -13.171875 C 7.484375 -13.171875 6.539062 -12.695312 5.875 -11.75 C 5.207031 -10.800781 4.875 -9.445312 4.875 -7.6875 C 4.875 -5.945312 5.207031 -4.613281 5.875 -3.6875 C 6.539062 -2.757812 7.484375 -2.296875 8.703125 -2.296875 Z M 8.703125 -2.296875 "/></g></g></g><g fill="#ffffff" fill-opacity="1"><g transform="translate(617.311497, 420.231503)"><g/></g></g><g fill="#ffffff" fill-opacity="1"><g transform="translate(623.370857, 420.231503)"><g><path d="M 19.234375 -14.96875 C 19.234375 -12.894531 18.519531 -11.296875 17.09375 -10.171875 C 15.675781 -9.054688 13.785156 -8.5 11.421875 -8.5 L 6.875 -8.5 C 6.675781 -8.5 6.578125 -8.398438 6.578125 -8.203125 L 6.578125 -0.578125 C 6.578125 -0.191406 6.363281 0 5.9375 0 L 2.8125 0 C 2.46875 0 2.296875 -0.171875 2.296875 -0.515625 L 2.296875 -21.03125 C 2.296875 -21.351562 2.4375 -21.515625 2.71875 -21.515625 L 10.9375 -21.515625 C 13.382812 -21.515625 15.378906 -20.960938 16.921875 -19.859375 C 18.460938 -18.765625 19.234375 -17.132812 19.234375 -14.96875 Z M 14.8125 -15.046875 C 14.8125 -16.191406 14.441406 -17.039062 13.703125 -17.59375 C 12.972656 -18.144531 11.972656 -18.421875 10.703125 -18.421875 L 7.078125 -18.421875 C 6.742188 -18.421875 6.578125 -18.265625 6.578125 -17.953125 L 6.578125 -12.09375 C 6.578125 -11.914062 6.601562 -11.785156 6.65625 -11.703125 C 6.71875 -11.628906 6.816406 -11.59375 6.953125 -11.59375 L 10.875 -11.59375 C 12.09375 -11.59375 13.050781 -11.890625 13.75 -12.484375 C 14.457031 -13.078125 14.8125 -13.929688 14.8125 -15.046875 Z M 14.8125 -15.046875 "/></g></g></g><g fill="#ffffff" fill-opacity="1"><g transform="translate(643.839336, 420.231503)"><g><path d="M 4.953125 -6.5 C 4.953125 -5.707031 5.132812 -4.992188 5.5 -4.359375 C 5.875 -3.734375 6.382812 -3.238281 7.03125 -2.875 C 7.675781 -2.519531 8.382812 -2.34375 9.15625 -2.34375 C 9.957031 -2.34375 10.679688 -2.507812 11.328125 -2.84375 C 11.972656 -3.1875 12.585938 -3.71875 13.171875 -4.4375 C 13.265625 -4.53125 13.335938 -4.578125 13.390625 -4.578125 C 13.453125 -4.578125 13.539062 -4.550781 13.65625 -4.5 L 15.421875 -3.71875 C 15.554688 -3.65625 15.625 -3.566406 15.625 -3.453125 C 15.625 -3.390625 15.585938 -3.300781 15.515625 -3.1875 C 14.640625 -1.9375 13.675781 -1.039062 12.625 -0.5 C 11.570312 0.03125 10.273438 0.296875 8.734375 0.296875 C 7.265625 0.296875 5.941406 -0.03125 4.765625 -0.6875 C 3.597656 -1.351562 2.6875 -2.273438 2.03125 -3.453125 C 1.375 -4.628906 1.046875 -5.972656 1.046875 -7.484375 C 1.046875 -9.109375 1.382812 -10.535156 2.0625 -11.765625 C 2.738281 -13.003906 3.65625 -13.960938 4.8125 -14.640625 C 5.96875 -15.316406 7.253906 -15.65625 8.671875 -15.65625 C 10.117188 -15.65625 11.398438 -15.335938 12.515625 -14.703125 C 13.628906 -14.066406 14.488281 -13.144531 15.09375 -11.9375 C 15.707031 -10.726562 16.015625 -9.289062 16.015625 -7.625 L 16.015625 -7.515625 C 16.015625 -7.316406 15.984375 -7.175781 15.921875 -7.09375 C 15.859375 -7.019531 15.734375 -6.972656 15.546875 -6.953125 L 5.28125 -6.953125 C 5.0625 -6.953125 4.953125 -6.800781 4.953125 -6.5 Z M 11.828125 -9.109375 C 12.023438 -9.109375 12.15625 -9.128906 12.21875 -9.171875 C 12.289062 -9.222656 12.328125 -9.335938 12.328125 -9.515625 C 12.328125 -10.128906 12.191406 -10.726562 11.921875 -11.3125 C 11.648438 -11.894531 11.25 -12.367188 10.71875 -12.734375 C 10.1875 -13.097656 9.550781 -13.28125 8.8125 -13.28125 C 7.675781 -13.28125 6.753906 -12.878906 6.046875 -12.078125 C 5.335938 -11.273438 4.992188 -10.285156 5.015625 -9.109375 Z M 11.828125 -9.109375 "/></g></g></g><g fill="#ffffff" fill-opacity="1"><g transform="translate(660.770765, 420.231503)"><g><path d="M 12.59375 0 C 12.21875 0 12.03125 -0.171875 12.03125 -0.515625 L 12.03125 -1.484375 C 12.03125 -1.648438 11.984375 -1.734375 11.890625 -1.734375 C 11.828125 -1.734375 11.75 -1.6875 11.65625 -1.59375 C 11.09375 -1.050781 10.46875 -0.597656 9.78125 -0.234375 C 9.101562 0.117188 8.269531 0.296875 7.28125 0.296875 C 6.082031 0.296875 5.019531 0 4.09375 -0.59375 C 3.164062 -1.1875 2.4375 -2.066406 1.90625 -3.234375 C 1.375 -4.398438 1.109375 -5.835938 1.109375 -7.546875 C 1.109375 -9.128906 1.390625 -10.535156 1.953125 -11.765625 C 2.523438 -13.003906 3.300781 -13.960938 4.28125 -14.640625 C 5.269531 -15.316406 6.375 -15.65625 7.59375 -15.65625 C 8.40625 -15.65625 9.113281 -15.523438 9.71875 -15.265625 C 10.332031 -15.003906 10.921875 -14.625 11.484375 -14.125 C 11.578125 -14.03125 11.679688 -13.984375 11.796875 -13.984375 C 11.921875 -13.984375 11.984375 -14.109375 11.984375 -14.359375 L 11.984375 -21.046875 C 11.984375 -21.359375 12.117188 -21.515625 12.390625 -21.515625 L 15.3125 -21.515625 C 15.601562 -21.515625 15.75 -21.351562 15.75 -21.03125 L 15.75 -0.546875 C 15.75 -0.359375 15.703125 -0.21875 15.609375 -0.125 C 15.523438 -0.0390625 15.367188 0 15.140625 0 Z M 11.984375 -11.578125 C 11.453125 -12.117188 10.941406 -12.519531 10.453125 -12.78125 C 9.960938 -13.039062 9.40625 -13.171875 8.78125 -13.171875 C 7.625 -13.171875 6.691406 -12.703125 5.984375 -11.765625 C 5.285156 -10.828125 4.9375 -9.4375 4.9375 -7.59375 C 4.9375 -5.738281 5.273438 -4.363281 5.953125 -3.46875 C 6.640625 -2.582031 7.554688 -2.140625 8.703125 -2.140625 C 9.296875 -2.140625 9.84375 -2.28125 10.34375 -2.5625 C 10.851562 -2.84375 11.253906 -3.207031 11.546875 -3.65625 C 11.835938 -4.101562 11.984375 -4.554688 11.984375 -5.015625 Z M 11.984375 -11.578125 "/></g></g></g><g fill="#ffffff" fill-opacity="1"><g transform="translate(678.34002, 420.231503)"><g><path d="M 2.34375 0 C 2 0 1.828125 -0.171875 1.828125 -0.515625 L 1.828125 -14.875 C 1.828125 -15.207031 1.960938 -15.375 2.234375 -15.375 L 5.046875 -15.375 C 5.316406 -15.375 5.453125 -15.226562 5.453125 -14.9375 L 5.453125 -13.171875 C 5.453125 -13.015625 5.5 -12.9375 5.59375 -12.9375 C 5.65625 -12.9375 5.734375 -12.984375 5.828125 -13.078125 C 6.460938 -13.890625 7.164062 -14.519531 7.9375 -14.96875 C 8.71875 -15.425781 9.472656 -15.65625 10.203125 -15.65625 C 10.898438 -15.65625 11.25 -15.503906 11.25 -15.203125 L 11.25 -12.40625 C 11.25 -12.132812 11.125 -12.019531 10.875 -12.0625 C 10.332031 -12.195312 9.734375 -12.265625 9.078125 -12.265625 C 8.578125 -12.265625 8.050781 -12.128906 7.5 -11.859375 C 6.945312 -11.585938 6.488281 -11.234375 6.125 -10.796875 C 5.769531 -10.367188 5.59375 -9.921875 5.59375 -9.453125 L 5.59375 -0.578125 C 5.59375 -0.191406 5.375 0 4.9375 0 Z M 2.34375 0 "/></g></g></g><g fill="#ffffff" fill-opacity="1"><g transform="translate(690.255802, 420.231503)"><g><path d="M 8.671875 0.296875 C 7.179688 0.296875 5.851562 -0.0351562 4.6875 -0.703125 C 3.53125 -1.378906 2.632812 -2.316406 2 -3.515625 C 1.363281 -4.710938 1.046875 -6.070312 1.046875 -7.59375 C 1.046875 -9.164062 1.375 -10.5625 2.03125 -11.78125 C 2.6875 -13.007812 3.59375 -13.960938 4.75 -14.640625 C 5.914062 -15.316406 7.234375 -15.65625 8.703125 -15.65625 C 10.191406 -15.65625 11.515625 -15.3125 12.671875 -14.625 C 13.828125 -13.9375 14.722656 -12.984375 15.359375 -11.765625 C 16.003906 -10.554688 16.328125 -9.175781 16.328125 -7.625 C 16.328125 -6.101562 16.003906 -4.738281 15.359375 -3.53125 C 14.710938 -2.332031 13.804688 -1.394531 12.640625 -0.71875 C 11.484375 -0.0390625 10.160156 0.296875 8.671875 0.296875 Z M 8.703125 -2.296875 C 9.941406 -2.296875 10.882812 -2.757812 11.53125 -3.6875 C 12.175781 -4.613281 12.5 -5.945312 12.5 -7.6875 C 12.5 -9.445312 12.171875 -10.800781 11.515625 -11.75 C 10.859375 -12.695312 9.921875 -13.171875 8.703125 -13.171875 C 7.484375 -13.171875 6.539062 -12.695312 5.875 -11.75 C 5.207031 -10.800781 4.875 -9.445312 4.875 -7.6875 C 4.875 -5.945312 5.207031 -4.613281 5.875 -3.6875 C 6.539062 -2.757812 7.484375 -2.296875 8.703125 -2.296875 Z M 8.703125 -2.296875 "/></g></g></g><g fill="#ffffff" fill-opacity="1"><g transform="translate(707.622119, 420.231503)"><g/></g></g><g fill="#ffffff" fill-opacity="1"><g transform="translate(713.681479, 420.231503)"><g><path d="M 2.296875 -21.03125 C 2.296875 -21.351562 2.4375 -21.515625 2.71875 -21.515625 L 16.5625 -21.515625 C 16.8125 -21.515625 16.9375 -21.367188 16.9375 -21.078125 L 16.90625 -18.875 C 16.90625 -18.507812 16.738281 -18.328125 16.40625 -18.328125 L 7.078125 -18.328125 C 6.742188 -18.328125 6.578125 -18.191406 6.578125 -17.921875 L 6.578125 -12.53125 C 6.578125 -12.238281 6.710938 -12.09375 6.984375 -12.09375 L 13.78125 -12.09375 C 14.050781 -12.09375 14.1875 -11.957031 14.1875 -11.6875 L 14.1875 -9.359375 C 14.1875 -9.242188 14.15625 -9.15625 14.09375 -9.09375 C 14.03125 -9.039062 13.925781 -9.015625 13.78125 -9.015625 L 6.953125 -9.015625 C 6.703125 -9.015625 6.578125 -8.890625 6.578125 -8.640625 L 6.578125 -0.546875 C 6.578125 -0.359375 6.523438 -0.21875 6.421875 -0.125 C 6.316406 -0.0390625 6.15625 0 5.9375 0 L 2.84375 0 C 2.625 0 2.476562 -0.0351562 2.40625 -0.109375 C 2.332031 -0.191406 2.296875 -0.328125 2.296875 -0.515625 Z M 2.296875 -21.03125 "/></g></g></g><g fill="#ffffff" fill-opacity="1"><g transform="translate(731.685621, 420.231503)"><g><path d="M 2.34375 0 C 2 0 1.828125 -0.171875 1.828125 -0.515625 L 1.828125 -14.875 C 1.828125 -15.207031 1.960938 -15.375 2.234375 -15.375 L 5.046875 -15.375 C 5.316406 -15.375 5.453125 -15.226562 5.453125 -14.9375 L 5.453125 -13.171875 C 5.453125 -13.015625 5.5 -12.9375 5.59375 -12.9375 C 5.65625 -12.9375 5.734375 -12.984375 5.828125 -13.078125 C 6.460938 -13.890625 7.164062 -14.519531 7.9375 -14.96875 C 8.71875 -15.425781 9.472656 -15.65625 10.203125 -15.65625 C 10.898438 -15.65625 11.25 -15.503906 11.25 -15.203125 L 11.25 -12.40625 C 11.25 -12.132812 11.125 -12.019531 10.875 -12.0625 C 10.332031 -12.195312 9.734375 -12.265625 9.078125 -12.265625 C 8.578125 -12.265625 8.050781 -12.128906 7.5 -11.859375 C 6.945312 -11.585938 6.488281 -11.234375 6.125 -10.796875 C 5.769531 -10.367188 5.59375 -9.921875 5.59375 -9.453125 L 5.59375 -0.578125 C 5.59375 -0.191406 5.375 0 4.9375 0 Z M 2.34375 0 "/></g></g></g><g fill="#ffffff" fill-opacity="1"><g transform="translate(743.601404, 420.231503)"><g><path d="M 4.953125 -6.5 C 4.953125 -5.707031 5.132812 -4.992188 5.5 -4.359375 C 5.875 -3.734375 6.382812 -3.238281 7.03125 -2.875 C 7.675781 -2.519531 8.382812 -2.34375 9.15625 -2.34375 C 9.957031 -2.34375 10.679688 -2.507812 11.328125 -2.84375 C 11.972656 -3.1875 12.585938 -3.71875 13.171875 -4.4375 C 13.265625 -4.53125 13.335938 -4.578125 13.390625 -4.578125 C 13.453125 -4.578125 13.539062 -4.550781 13.65625 -4.5 L 15.421875 -3.71875 C 15.554688 -3.65625 15.625 -3.566406 15.625 -3.453125 C 15.625 -3.390625 15.585938 -3.300781 15.515625 -3.1875 C 14.640625 -1.9375 13.675781 -1.039062 12.625 -0.5 C 11.570312 0.03125 10.273438 0.296875 8.734375 0.296875 C 7.265625 0.296875 5.941406 -0.03125 4.765625 -0.6875 C 3.597656 -1.351562 2.6875 -2.273438 2.03125 -3.453125 C 1.375 -4.628906 1.046875 -5.972656 1.046875 -7.484375 C 1.046875 -9.109375 1.382812 -10.535156 2.0625 -11.765625 C 2.738281 -13.003906 3.65625 -13.960938 4.8125 -14.640625 C 5.96875 -15.316406 7.253906 -15.65625 8.671875 -15.65625 C 10.117188 -15.65625 11.398438 -15.335938 12.515625 -14.703125 C 13.628906 -14.066406 14.488281 -13.144531 15.09375 -11.9375 C 15.707031 -10.726562 16.015625 -9.289062 16.015625 -7.625 L 16.015625 -7.515625 C 16.015625 -7.316406 15.984375 -7.175781 15.921875 -7.09375 C 15.859375 -7.019531 15.734375 -6.972656 15.546875 -6.953125 L 5.28125 -6.953125 C 5.0625 -6.953125 4.953125 -6.800781 4.953125 -6.5 Z M 11.828125 -9.109375 C 12.023438 -9.109375 12.15625 -9.128906 12.21875 -9.171875 C 12.289062 -9.222656 12.328125 -9.335938 12.328125 -9.515625 C 12.328125 -10.128906 12.191406 -10.726562 11.921875 -11.3125 C 11.648438 -11.894531 11.25 -12.367188 10.71875 -12.734375 C 10.1875 -13.097656 9.550781 -13.28125 8.8125 -13.28125 C 7.675781 -13.28125 6.753906 -12.878906 6.046875 -12.078125 C 5.335938 -11.273438 4.992188 -10.285156 5.015625 -9.109375 Z M 11.828125 -9.109375 "/></g></g></g><g fill="#ffffff" fill-opacity="1"><g transform="translate(760.532834, 420.231503)"><g><path d="M 5.65625 -18.21875 C 5.65625 -17.976562 5.601562 -17.804688 5.5 -17.703125 C 5.394531 -17.597656 5.210938 -17.546875 4.953125 -17.546875 L 2.3125 -17.546875 C 2.101562 -17.546875 1.957031 -17.59375 1.875 -17.6875 C 1.800781 -17.78125 1.765625 -17.925781 1.765625 -18.125 L 1.765625 -20.96875 C 1.765625 -21.332031 1.921875 -21.515625 2.234375 -21.515625 L 5.21875 -21.515625 C 5.351562 -21.515625 5.457031 -21.46875 5.53125 -21.375 C 5.613281 -21.289062 5.65625 -21.175781 5.65625 -21.03125 Z M 5.59375 -0.640625 C 5.59375 -0.410156 5.539062 -0.242188 5.4375 -0.140625 C 5.332031 -0.046875 5.15625 0 4.90625 0 L 2.375 0 C 2.164062 0 2.019531 -0.0351562 1.9375 -0.109375 C 1.863281 -0.191406 1.828125 -0.328125 1.828125 -0.515625 L 1.828125 -14.875 C 1.828125 -15.207031 1.972656 -15.375 2.265625 -15.375 L 5.1875 -15.375 C 5.457031 -15.375 5.59375 -15.21875 5.59375 -14.90625 Z M 5.59375 -0.640625 "/></g></g></g><g fill="#ffffff" fill-opacity="1"><g transform="translate(767.95483, 420.231503)"><g><path d="M 7.453125 -12.734375 C 7.253906 -12.734375 7.15625 -12.625 7.15625 -12.40625 L 7.15625 -4.671875 C 7.15625 -3.929688 7.304688 -3.410156 7.609375 -3.109375 C 7.910156 -2.816406 8.398438 -2.671875 9.078125 -2.671875 L 10.78125 -2.671875 C 10.90625 -2.671875 11.003906 -2.628906 11.078125 -2.546875 C 11.148438 -2.472656 11.1875 -2.378906 11.1875 -2.265625 L 11.171875 -0.75 C 11.171875 -0.425781 10.984375 -0.234375 10.609375 -0.171875 C 9.910156 -0.0546875 8.847656 0 7.421875 0 C 6.109375 0 5.109375 -0.300781 4.421875 -0.90625 C 3.734375 -1.519531 3.390625 -2.445312 3.390625 -3.6875 L 3.390625 -12.359375 C 3.390625 -12.609375 3.273438 -12.734375 3.046875 -12.734375 L 1.109375 -12.734375 C 0.796875 -12.734375 0.640625 -12.878906 0.640625 -13.171875 L 0.640625 -15 C 0.640625 -15.25 0.785156 -15.375 1.078125 -15.375 L 3.21875 -15.375 C 3.394531 -15.375 3.484375 -15.46875 3.484375 -15.65625 L 3.859375 -20.125 C 3.878906 -20.300781 3.914062 -20.421875 3.96875 -20.484375 C 4.03125 -20.554688 4.128906 -20.59375 4.265625 -20.59375 L 6.84375 -20.59375 C 6.957031 -20.59375 7.050781 -20.546875 7.125 -20.453125 C 7.207031 -20.367188 7.25 -20.25 7.25 -20.09375 L 7.25 -15.65625 C 7.25 -15.488281 7.335938 -15.40625 7.515625 -15.40625 L 10.78125 -15.40625 C 11.070312 -15.40625 11.21875 -15.269531 11.21875 -15 L 11.21875 -13.171875 C 11.21875 -12.878906 11.054688 -12.734375 10.734375 -12.734375 Z M 7.453125 -12.734375 "/></g></g></g><g fill="#ffffff" fill-opacity="1"><g transform="translate(780.044551, 420.231503)"><g><path d="M 10.4375 -1.59375 C 9.082031 -0.332031 7.5 0.296875 5.6875 0.296875 C 4.21875 0.296875 3.050781 -0.09375 2.1875 -0.875 C 1.332031 -1.664062 0.90625 -2.6875 0.90625 -3.9375 C 0.90625 -5.539062 1.617188 -6.816406 3.046875 -7.765625 C 4.472656 -8.710938 6.472656 -9.238281 9.046875 -9.34375 L 10.5 -9.421875 C 10.8125 -9.460938 10.96875 -9.609375 10.96875 -9.859375 L 10.96875 -10.53125 C 10.96875 -11.375 10.707031 -12.03125 10.1875 -12.5 C 9.675781 -12.976562 8.976562 -13.21875 8.09375 -13.21875 C 6.625 -13.21875 5.492188 -12.582031 4.703125 -11.3125 C 4.640625 -11.226562 4.582031 -11.160156 4.53125 -11.109375 C 4.488281 -11.066406 4.425781 -11.046875 4.34375 -11.046875 C 4.25 -11.046875 4.175781 -11.054688 4.125 -11.078125 L 1.6875 -11.6875 C 1.53125 -11.726562 1.453125 -11.816406 1.453125 -11.953125 C 1.453125 -12.046875 1.488281 -12.171875 1.5625 -12.328125 C 2.0625 -13.410156 2.882812 -14.234375 4.03125 -14.796875 C 5.1875 -15.367188 6.597656 -15.65625 8.265625 -15.65625 C 10.429688 -15.65625 12.019531 -15.226562 13.03125 -14.375 C 14.050781 -13.53125 14.5625 -12.332031 14.5625 -10.78125 L 14.5625 -0.578125 C 14.5625 -0.367188 14.523438 -0.21875 14.453125 -0.125 C 14.390625 -0.0390625 14.257812 0 14.0625 0 L 11.59375 0 C 11.425781 0 11.300781 -0.0546875 11.21875 -0.171875 C 11.144531 -0.285156 11.085938 -0.460938 11.046875 -0.703125 L 11.015625 -1.5625 C 10.992188 -1.738281 10.925781 -1.828125 10.8125 -1.828125 C 10.757812 -1.828125 10.632812 -1.75 10.4375 -1.59375 Z M 10.96875 -7.015625 C 10.96875 -7.191406 10.929688 -7.316406 10.859375 -7.390625 C 10.796875 -7.472656 10.6875 -7.515625 10.53125 -7.515625 L 9.34375 -7.421875 C 7.988281 -7.328125 6.859375 -7.019531 5.953125 -6.5 C 5.054688 -5.988281 4.609375 -5.289062 4.609375 -4.40625 C 4.609375 -3.75 4.84375 -3.226562 5.3125 -2.84375 C 5.789062 -2.457031 6.425781 -2.265625 7.21875 -2.265625 C 8.226562 -2.265625 9.109375 -2.570312 9.859375 -3.1875 C 10.597656 -3.769531 10.96875 -4.359375 10.96875 -4.953125 Z M 10.96875 -7.015625 "/></g></g></g><g fill="#ffffff" fill-opacity="1"><g transform="translate(796.222193, 420.231503)"><g><path d="M 11.21875 -11.578125 C 10.832031 -12.097656 10.328125 -12.507812 9.703125 -12.8125 C 9.085938 -13.125 8.375 -13.28125 7.5625 -13.28125 C 6.71875 -13.28125 6.019531 -13.101562 5.46875 -12.75 C 4.914062 -12.40625 4.640625 -11.953125 4.640625 -11.390625 C 4.640625 -11.066406 4.773438 -10.773438 5.046875 -10.515625 C 5.316406 -10.253906 5.8125 -10.023438 6.53125 -9.828125 L 9.96875 -8.90625 C 11.425781 -8.539062 12.492188 -7.976562 13.171875 -7.21875 C 13.847656 -6.46875 14.1875 -5.570312 14.1875 -4.53125 C 14.1875 -3.539062 13.898438 -2.679688 13.328125 -1.953125 C 12.753906 -1.234375 11.957031 -0.675781 10.9375 -0.28125 C 9.925781 0.101562 8.773438 0.296875 7.484375 0.296875 C 5.878906 0.296875 4.476562 0 3.28125 -0.59375 C 2.082031 -1.1875 1.226562 -1.957031 0.71875 -2.90625 C 0.644531 -3.050781 0.609375 -3.15625 0.609375 -3.21875 C 0.609375 -3.332031 0.664062 -3.429688 0.78125 -3.515625 L 2.5 -4.375 C 2.632812 -4.457031 2.75 -4.5 2.84375 -4.5 C 2.914062 -4.5 3.003906 -4.445312 3.109375 -4.34375 C 3.566406 -3.6875 4.128906 -3.164062 4.796875 -2.78125 C 5.460938 -2.394531 6.328125 -2.203125 7.390625 -2.203125 C 8.378906 -2.203125 9.1875 -2.367188 9.8125 -2.703125 C 10.445312 -3.046875 10.765625 -3.519531 10.765625 -4.125 C 10.765625 -4.53125 10.59375 -4.867188 10.25 -5.140625 C 9.914062 -5.421875 9.332031 -5.671875 8.5 -5.890625 L 5.53125 -6.578125 C 4.0625 -6.929688 2.984375 -7.453125 2.296875 -8.140625 C 1.617188 -8.835938 1.28125 -9.726562 1.28125 -10.8125 C 1.28125 -11.757812 1.535156 -12.597656 2.046875 -13.328125 C 2.554688 -14.066406 3.289062 -14.640625 4.25 -15.046875 C 5.207031 -15.453125 6.320312 -15.65625 7.59375 -15.65625 C 8.96875 -15.65625 10.1875 -15.398438 11.25 -14.890625 C 12.3125 -14.378906 13.09375 -13.726562 13.59375 -12.9375 C 13.695312 -12.78125 13.75 -12.65625 13.75 -12.5625 C 13.75 -12.457031 13.695312 -12.378906 13.59375 -12.328125 L 11.796875 -11.421875 C 11.679688 -11.390625 11.613281 -11.375 11.59375 -11.375 C 11.445312 -11.375 11.320312 -11.441406 11.21875 -11.578125 Z M 11.21875 -11.578125 "/></g></g></g></svg>